<svg id="Layer_1" data-name="Layer 1" xmlns="http://www.w3.org/2000/svg" width="48" height="48" viewBox="0 0 48 48"><title>sloth-bg</title><path d="M20.4,11.5A1.4,1.4,0,1,1,19,10.1,1.4,1.4,0,0,1,20.4,11.5Zm4.2-.5h0c-.1.2-2.4,3.9-5.6,3.9s-5.5-3.7-5.6-3.9h0a2.6,2.6,0,0,1,0-1.9A4.2,4.2,0,0,1,16,7a8.2,8.2,0,0,1,3-.7h0a8.2,8.2,0,0,1,3,.7,4.2,4.2,0,0,1,2.5,2.2A2.6,2.6,0,0,1,24.6,11Zm-1.5.7-.9-.5h-.4a1,1,0,1,1,1-1.1l1,.5h.1a1.8,1.8,0,0,0-.1-1.3,3.5,3.5,0,0,0-2.1-1.7A7.5,7.5,0,0,0,19,7a7.4,7.4,0,0,0-2.8.6,3.5,3.5,0,0,0-2.1,1.7,1.8,1.8,0,0,0-.1,1.3h.1l1-.5a1,1,0,1,1,1,1.1h-.4l-.9.5c.9,1,2.4,2.5,4.1,2.5S22.3,12.8,23.1,11.7Z" fill="#d8c2ab"/><path d="M20.4,38.2A1.4,1.4,0,1,1,19,36.8,1.4,1.4,0,0,1,20.4,38.2Zm4.2-.5h0c-.1.2-2.4,3.9-5.6,3.9s-5.5-3.7-5.6-3.9h0a2.6,2.6,0,0,1,0-1.9A4.2,4.2,0,0,1,16,33.6a8.2,8.2,0,0,1,3-.7h0a8.2,8.2,0,0,1,3,.7,4.2,4.2,0,0,1,2.5,2.2A2.6,2.6,0,0,1,24.6,37.7Zm-1.5.7-.9-.5h-.4a1,1,0,1,1,1-1.1l1,.5h.1a1.8,1.8,0,0,0-.1-1.3,3.5,3.5,0,0,0-2.1-1.7,7.5,7.5,0,0,0-2.8-.6,7.4,7.4,0,0,0-2.8.6,3.5,3.5,0,0,0-2.1,1.7,1.8,1.8,0,0,0-.1,1.3h.1l1-.5a1,1,0,1,1,1,1.1h-.4l-.9.5c.9,1,2.4,2.5,4.1,2.5S22.3,39.5,23.1,38.4Z" fill="#d8c2ab"/><path d="M31.4,24.9A1.4,1.4,0,1,1,30,23.4,1.4,1.4,0,0,1,31.4,24.9Zm4.2-.5h0c-.1.2-2.4,3.9-5.6,3.9s-5.5-3.7-5.6-3.9h0a2.6,2.6,0,0,1,0-1.9,4.2,4.2,0,0,1,2.5-2.2,8.2,8.2,0,0,1,3-.7h0a8.2,8.2,0,0,1,3,.7,4.2,4.2,0,0,1,2.5,2.2A2.6,2.6,0,0,1,35.6,24.4Zm-1.5.7-.9-.5h-.4a1,1,0,1,1,1-1.1l1,.5h.1a1.8,1.8,0,0,0-.1-1.3A3.5,3.5,0,0,0,32.7,21a7.5,7.5,0,0,0-2.8-.6,7.4,7.4,0,0,0-2.8.6,3.5,3.5,0,0,0-2.1,1.7,1.8,1.8,0,0,0-.1,1.3h.1l1-.5a1,1,0,1,1,1,1.1h-.4l-.9.5c.9,1,2.4,2.5,4.1,2.5S33.2,26.1,34.1,25.1Z" fill="#d8c2ab"/></svg>